# xmcd
#
# Track frame offsets:
#	150
#	12282
#	27752
#	48905
#	61860
#	76407
#	88705
#	101232
#	121542
#	138325
#	157502
#
# Disc length: 2345 seconds
#
# Revision: 1
# Processed by: cddbd v1.4PL0 Copyright (c) Steve Scherf et al.
# Submitted via: audiograbber 1.82.02
#
DISCID=7509270b
DTITLE=The Section - A Night Out With The Boys
DYEAR=1997
DGENRE=Blues
TTITLE0=The Snook
TTITLE1=Back Door Man
TTITLE2=Can't Hold On Much Longer
TTITLE3=You Don't Love Me
TTITLE4=Alright
TTITLE5=No More The Blues
TTITLE6=L and N
TTITLE7=Rollin' n Tumblin'
TTITLE8=Driving
TTITLE9=Calling Card
TTITLE10=Old Time Rock and Roll
EXTD=
EXTT0=
EXTT1=
EXTT2=
EXTT3=
EXTT4=
EXTT5=
EXTT6=
EXTT7=
EXTT8=
EXTT9=
EXTT10=
PLAYORDER=
